<svg width="2689" height="779" viewBox="0 0 2689 779" fill="none" xmlns="http://www.w3.org/2000/svg">
<path d="M32.077 748.133L15.0695 678.17L43.9776 671.143C46.1153 670.623 48.0092 670.3 49.6593 670.173C55.7748 669.647 60.8106 671.03 64.7669 674.322C68.7476 677.574 71.4703 682.212 72.9348 688.236C73.8875 692.156 74.0818 695.848 73.5176 699.312C72.9857 702.769 71.6237 705.845 69.4313 708.539C67.2714 711.225 64.3067 713.352 60.5371 714.92C59.0129 715.565 57.182 716.147 55.0443 716.667L37.8452 720.848L43.786 745.286L32.077 748.133ZM51.901 705.854C53.7148 705.413 55.1492 704.892 56.2041 704.293C58.7271 702.959 60.328 701.078 61.0068 698.649C61.7179 696.212 61.7586 693.698 61.1286 691.107C60.4987 688.515 59.3085 686.3 57.558 684.462C55.8321 682.583 53.5422 681.63 50.6885 681.604C49.4516 681.596 47.9424 681.808 46.1609 682.241L29.4477 686.304L35.1877 709.916L51.901 705.854ZM124.079 727.311C117.213 728.98 110.887 728.923 105.102 727.139C99.3411 725.315 94.4473 721.976 90.4204 717.124C86.3935 712.271 83.5021 706.233 81.7462 699.01C79.9903 691.787 79.7873 685.096 81.1371 678.936C82.4869 672.776 85.3059 667.58 89.5941 663.347C93.9068 659.074 99.4965 656.103 106.363 654.434C113.262 652.756 119.592 652.83 125.353 654.654C131.138 656.438 136.044 659.756 140.071 664.609C144.098 669.462 146.989 675.5 148.745 682.723C150.501 689.946 150.704 696.637 149.354 702.797C148.004 708.957 145.173 714.173 140.86 718.446C136.572 722.679 130.978 725.634 124.079 727.311ZM121.69 716.211C126.224 715.109 129.795 713.144 132.4 710.315C135.03 707.446 136.658 703.911 137.283 699.711C137.909 695.511 137.6 690.852 136.356 685.735C135.096 680.552 133.196 676.263 130.655 672.867C128.139 669.431 125.025 667.066 121.315 665.773C117.604 664.479 113.417 664.399 108.753 665.533C104.186 666.643 100.607 668.645 98.0176 671.539C95.42 674.4 93.8083 677.931 93.1827 682.131C92.5895 686.323 92.9189 690.994 94.1708 696.144C95.4228 701.294 97.3029 705.571 99.8113 708.975C102.352 712.371 105.461 714.719 109.14 716.021C112.842 717.282 117.026 717.345 121.69 716.211ZM220.606 702.302L207.342 705.527L187.144 682.342L172.18 685.979L178.628 712.507L166.919 715.353L149.912 645.391L178.82 638.363C180.958 637.844 182.852 637.52 184.502 637.394C190.617 636.868 195.629 638.153 199.538 641.251C203.472 644.308 206.132 648.687 207.517 654.388C208.195 657.174 208.354 660.016 207.995 662.916C207.662 665.776 206.767 668.515 205.31 671.133C203.846 673.719 201.807 675.913 199.192 677.715L220.606 702.302ZM164.29 653.525L169.511 674.999L186.224 670.936C186.386 670.897 186.774 670.802 187.39 670.653C188.038 670.495 188.629 670.317 189.164 670.119C189.731 669.912 190.189 669.681 190.539 669.424C192.992 667.662 194.601 665.744 195.366 663.671C196.124 661.566 196.239 659.428 195.711 657.258C195.16 654.991 194.033 653.035 192.33 651.391C190.618 649.714 188.352 648.859 185.531 648.824C184.294 648.816 182.785 649.029 181.003 649.462L164.29 653.525ZM242.922 696.877L231.067 699.759L214.059 629.797L225.914 626.915L270.357 668.339L258.369 619.025L270.224 616.144L287.231 686.106L275.376 688.988L230.934 647.564L242.922 696.877ZM330.756 677.069C323.889 678.738 317.563 678.681 311.778 676.897C306.017 675.073 301.124 671.734 297.097 666.882C293.07 662.029 290.178 655.991 288.422 648.768C286.667 641.545 286.463 634.854 287.813 628.694C289.163 622.534 291.982 617.338 296.27 613.105C300.583 608.832 306.173 605.861 313.039 604.192C319.938 602.514 326.268 602.588 332.029 604.412C337.814 606.196 342.72 609.514 346.747 614.367C350.774 619.22 353.665 625.258 355.421 632.481C357.177 639.704 357.38 646.395 356.03 652.555C354.68 658.715 351.849 663.931 347.536 668.204C343.248 672.437 337.655 675.392 330.756 677.069ZM328.366 665.969C332.901 664.867 336.471 662.901 339.076 660.073C341.706 657.204 343.334 653.669 343.96 649.469C344.585 645.269 344.276 640.61 343.032 635.493C341.772 630.31 339.872 626.021 337.331 622.625C334.815 619.189 331.702 616.824 327.991 615.531C324.28 614.237 320.093 614.157 315.429 615.291C310.862 616.401 307.284 618.403 304.694 621.297C302.096 624.158 300.485 627.689 299.859 631.889C299.266 636.081 299.595 640.752 300.847 645.902C302.099 651.052 303.979 655.329 306.487 658.733C309.028 662.129 312.138 664.477 315.816 665.779C319.518 667.04 323.702 667.103 328.366 665.969ZM421.568 653.449L409.859 656.296L395.521 597.313L372.88 602.817L370.211 591.837L427.201 577.983L429.87 588.963L407.23 594.467L421.568 653.449ZM464.658 642.974L452.949 645.821L435.941 575.858L447.65 573.012L464.658 642.974ZM535.278 625.807L520.703 629.35L489.147 605.376L484.79 613.278L490.483 636.696L479.211 639.437L462.204 569.474L473.475 566.734L480.916 597.343L501.849 559.836L516.23 556.34L494.828 595.093L535.278 625.807ZM570.644 617.21L558.935 620.056L544.597 561.074L521.956 566.578L519.287 555.597L576.277 541.743L578.947 552.723L556.306 558.227L570.644 617.21ZM630.996 604.082C624.129 605.751 617.803 605.694 612.018 603.91C606.258 602.086 601.364 598.747 597.337 593.895C593.31 589.042 590.419 583.004 588.663 575.781C586.907 568.558 586.704 561.867 588.054 555.707C589.403 549.547 592.222 544.351 596.511 540.118C600.823 535.845 606.413 532.874 613.28 531.205C620.179 529.527 626.509 529.601 632.269 531.425C638.054 533.209 642.96 536.527 646.987 541.38C651.014 546.233 653.906 552.271 655.661 559.494C657.417 566.717 657.62 573.408 656.271 579.568C654.921 585.728 652.089 590.944 647.777 595.217C643.489 599.45 637.895 602.405 630.996 604.082ZM628.606 592.982C633.141 591.88 636.711 589.914 639.317 587.086C641.947 584.216 643.574 580.682 644.2 576.482C644.826 572.282 644.516 567.623 643.272 562.506C642.012 557.323 640.112 553.034 637.571 549.638C635.055 546.202 631.942 543.837 628.231 542.544C624.521 541.25 620.333 541.17 615.669 542.304C611.102 543.414 607.524 545.416 604.934 548.31C602.336 551.171 600.725 554.702 600.099 558.902C599.506 563.094 599.835 567.765 601.087 572.915C602.339 578.065 604.219 582.342 606.728 585.746C609.268 589.142 612.378 591.49 616.056 592.792C619.759 594.053 623.942 594.116 628.606 592.982Z" fill="#FC55F5"/>
<path d="M703.522 584.908L686.515 514.945L715.423 507.918C717.561 507.398 719.455 507.075 721.105 506.948C727.22 506.422 732.256 507.805 736.212 511.097C740.193 514.349 742.916 518.987 744.38 525.011C745.333 528.93 745.527 532.622 744.963 536.087C744.431 539.544 743.069 542.619 740.877 545.313C738.717 548 735.752 550.127 731.982 551.695C730.458 552.34 728.627 552.922 726.49 553.442L709.29 557.623L715.231 582.061L703.522 584.908ZM723.346 542.628C725.16 542.187 726.595 541.667 727.649 541.068C730.172 539.734 731.773 537.853 732.452 535.424C733.163 532.987 733.204 530.472 732.574 527.881C731.944 525.29 730.754 523.075 729.003 521.237C727.277 519.358 724.988 518.405 722.134 518.379C720.897 518.37 719.388 518.583 717.606 519.016L700.893 523.079L706.633 546.691L723.346 542.628ZM795.525 564.086C788.658 565.755 782.332 565.698 776.547 563.914C770.786 562.09 765.893 558.751 761.866 553.898C757.839 549.046 754.947 543.008 753.192 535.785C751.436 528.562 751.233 521.87 752.582 515.711C753.932 509.551 756.751 504.354 761.039 500.122C765.352 495.849 770.942 492.878 777.809 491.208C784.708 489.531 791.037 489.605 796.798 491.429C802.583 493.213 807.489 496.531 811.516 501.384C815.543 506.237 818.434 512.275 820.19 519.498C821.946 526.721 822.149 533.412 820.799 539.572C819.45 545.732 816.618 550.948 812.306 555.221C808.017 559.454 802.424 562.409 795.525 564.086ZM793.135 552.986C797.67 551.884 801.24 549.918 803.845 547.089C806.475 544.22 808.103 540.686 808.729 536.486C809.354 532.286 809.045 527.627 807.801 522.509C806.541 517.327 804.641 513.038 802.1 509.642C799.584 506.206 796.471 503.841 792.76 502.547C789.05 501.254 784.862 501.174 780.198 502.308C775.631 503.418 772.053 505.42 769.463 508.314C766.865 511.175 765.254 514.706 764.628 518.906C764.035 523.098 764.364 527.769 765.616 532.919C766.868 538.069 768.748 542.346 771.257 545.749C773.797 549.145 776.907 551.494 780.585 552.795C784.288 554.056 788.471 554.12 793.135 552.986ZM892.051 539.077L878.788 542.301L858.589 519.116L843.625 522.754L850.074 549.282L838.365 552.128L821.357 482.166L850.265 475.138C852.403 474.618 854.297 474.295 855.947 474.169C862.063 473.642 867.075 474.928 870.984 478.026C874.917 481.083 877.577 485.462 878.963 491.163C879.64 493.948 879.799 496.791 879.441 499.691C879.107 502.551 878.212 505.29 876.756 507.908C875.292 510.494 873.252 512.688 870.637 514.49L892.051 539.077ZM835.735 490.299L840.956 511.774L857.669 507.711C857.831 507.672 858.22 507.577 858.835 507.428C859.483 507.27 860.074 507.092 860.609 506.893C861.176 506.687 861.635 506.455 861.984 506.199C864.437 504.436 866.046 502.519 866.812 500.446C867.569 498.341 867.684 496.203 867.157 494.033C866.605 491.766 865.478 489.81 863.775 488.166C862.064 486.489 859.798 485.633 856.976 485.599C855.739 485.591 854.23 485.803 852.449 486.236L835.735 490.299ZM914.367 533.652L902.512 536.534L885.505 466.572L897.359 463.69L941.802 505.114L929.814 455.8L941.669 452.918L958.676 522.881L946.822 525.763L902.379 484.338L914.367 533.652ZM1002.2 513.844C995.334 515.513 989.008 515.456 983.223 513.672C977.463 511.848 972.569 508.509 968.542 503.656C964.515 498.804 961.624 492.766 959.868 485.543C958.112 478.32 957.909 471.628 959.259 465.469C960.608 459.309 963.427 454.112 967.716 449.88C972.028 445.607 977.618 442.636 984.485 440.966C991.384 439.289 997.714 439.363 1003.47 441.187C1009.26 442.971 1014.17 446.289 1018.19 451.142C1022.22 455.995 1025.11 462.033 1026.87 469.256C1028.62 476.479 1028.83 483.17 1027.48 489.33C1026.13 495.49 1023.29 500.706 1018.98 504.979C1014.69 509.212 1009.1 512.167 1002.2 513.844ZM999.811 502.744C1004.35 501.642 1007.92 499.676 1010.52 496.847C1013.15 493.978 1014.78 490.444 1015.4 486.244C1016.03 482.044 1015.72 477.385 1014.48 472.267C1013.22 467.085 1011.32 462.796 1008.78 459.4C1006.26 455.964 1003.15 453.599 999.436 452.305C995.726 451.012 991.538 450.932 986.874 452.066C982.307 453.176 978.729 455.178 976.139 458.072C973.541 460.933 971.93 464.464 971.304 468.664C970.711 472.856 971.04 477.527 972.292 482.677C973.544 487.827 975.424 492.104 977.933 495.507C980.474 498.903 983.583 501.252 987.261 502.553C990.964 503.814 995.147 503.878 999.811 502.744ZM1093.01 490.224L1081.3 493.071L1066.97 434.088L1044.33 439.592L1041.66 428.612L1098.65 414.758L1101.32 425.738L1078.68 431.242L1093.01 490.224ZM1136.1 479.749L1124.39 482.596L1107.39 412.633L1119.1 409.787L1136.1 479.749ZM1206.72 462.582L1192.15 466.125L1160.59 442.151L1156.24 450.053L1161.93 473.471L1150.66 476.211L1133.65 406.249L1144.92 403.509L1152.36 434.117L1173.29 396.611L1187.68 393.115L1166.27 431.867L1206.72 462.582ZM1242.09 453.984L1230.38 456.831L1216.04 397.848L1193.4 403.352L1190.73 392.372L1247.72 378.518L1250.39 389.498L1227.75 395.002L1242.09 453.984ZM1302.44 440.857C1295.57 442.526 1289.25 442.469 1283.46 440.685C1277.7 438.861 1272.81 435.522 1268.78 430.669C1264.76 425.817 1261.86 419.779 1260.11 412.556C1258.35 405.333 1258.15 398.641 1259.5 392.481C1260.85 386.322 1263.67 381.125 1267.96 376.893C1272.27 372.62 1277.86 369.649 1284.72 367.979C1291.62 366.302 1297.95 366.376 1303.71 368.2C1309.5 369.984 1314.41 373.302 1318.43 378.155C1322.46 383.008 1325.35 389.046 1327.11 396.269C1328.86 403.492 1329.07 410.183 1327.72 416.343C1326.37 422.503 1323.53 427.719 1319.22 431.992C1314.93 436.225 1309.34 439.18 1302.44 440.857ZM1300.05 429.757C1304.59 428.655 1308.16 426.689 1310.76 423.86C1313.39 420.991 1315.02 417.457 1315.65 413.257C1316.27 409.057 1315.96 404.398 1314.72 399.28C1313.46 394.098 1311.56 389.809 1309.02 386.413C1306.5 382.977 1303.39 380.612 1299.68 379.318C1295.97 378.025 1291.78 377.945 1287.11 379.079C1282.55 380.189 1278.97 382.191 1276.38 385.085C1273.78 387.946 1272.17 391.477 1271.54 395.677C1270.95 399.869 1271.28 404.54 1272.53 409.69C1273.78 414.84 1275.66 419.117 1278.17 422.52C1280.71 425.916 1283.82 428.265 1287.5 429.566C1291.2 430.827 1295.39 430.891 1300.05 429.757Z" fill="#FC55F5"/>
<path d="M1374.97 421.682L1357.96 351.72L1386.87 344.692C1389.01 344.173 1390.9 343.85 1392.55 343.723C1398.66 343.197 1403.7 344.58 1407.66 347.872C1411.64 351.123 1414.36 355.762 1415.82 361.786C1416.78 365.705 1416.97 369.397 1416.41 372.862C1415.88 376.319 1414.51 379.394 1412.32 382.088C1410.16 384.774 1407.2 386.902 1403.43 388.47C1401.9 389.115 1400.07 389.697 1397.93 390.217L1380.74 394.398L1386.68 418.836L1374.97 421.682ZM1394.79 379.403C1396.6 378.962 1398.04 378.442 1399.09 377.842C1401.62 376.509 1403.22 374.627 1403.9 372.198C1404.61 369.761 1404.65 367.247 1404.02 364.656C1403.39 362.065 1402.2 359.85 1400.45 358.011C1398.72 356.133 1396.43 355.18 1393.58 355.153C1392.34 355.145 1390.83 355.358 1389.05 355.791L1372.34 359.854L1378.08 383.466L1394.79 379.403ZM1466.97 400.861C1460.1 402.53 1453.78 402.473 1447.99 400.689C1442.23 398.864 1437.34 395.526 1433.31 390.673C1429.28 385.82 1426.39 379.783 1424.64 372.56C1422.88 365.337 1422.68 358.645 1424.03 352.485C1425.38 346.325 1428.2 341.129 1432.48 336.896C1436.8 332.624 1442.39 329.652 1449.25 327.983C1456.15 326.306 1462.48 326.38 1468.24 328.204C1474.03 329.988 1478.93 333.306 1482.96 338.159C1486.99 343.012 1489.88 349.049 1491.64 356.272C1493.39 363.495 1493.59 370.187 1492.24 376.347C1490.89 382.506 1488.06 387.723 1483.75 391.996C1479.46 396.229 1473.87 399.184 1466.97 400.861ZM1464.58 389.761C1469.11 388.659 1472.68 386.693 1475.29 383.864C1477.92 380.995 1479.55 377.461 1480.17 373.261C1480.8 369.061 1480.49 364.402 1479.25 359.284C1477.99 354.102 1476.09 349.813 1473.55 346.417C1471.03 342.98 1467.92 340.616 1464.2 339.322C1460.49 338.029 1456.31 337.949 1451.64 339.083C1447.08 340.193 1443.5 342.195 1440.91 345.089C1438.31 347.95 1436.7 351.48 1436.07 355.68C1435.48 359.872 1435.81 364.544 1437.06 369.694C1438.31 374.844 1440.19 379.12 1442.7 382.524C1445.24 385.92 1448.35 388.269 1452.03 389.57C1455.73 390.831 1459.92 390.895 1464.58 389.761ZM1563.5 375.852L1550.23 379.076L1530.03 355.891L1515.07 359.529L1521.52 386.056L1509.81 388.903L1492.8 318.94L1521.71 311.913C1523.85 311.393 1525.74 311.07 1527.39 310.943C1533.51 310.417 1538.52 311.703 1542.43 314.801C1546.36 317.858 1549.02 322.237 1550.41 327.938C1551.08 330.723 1551.24 333.566 1550.89 336.466C1550.55 339.326 1549.66 342.065 1548.2 344.683C1546.74 347.268 1544.7 349.462 1542.08 351.264L1563.5 375.852ZM1507.18 327.074L1512.4 348.549L1529.11 344.486C1529.28 344.446 1529.66 344.352 1530.28 344.202C1530.93 344.045 1531.52 343.867 1532.05 343.668C1532.62 343.462 1533.08 343.23 1533.43 342.974C1535.88 341.211 1537.49 339.293 1538.26 337.221C1539.01 335.115 1539.13 332.978 1538.6 330.808C1538.05 328.54 1536.92 326.585 1535.22 324.94C1533.51 323.264 1531.24 322.408 1528.42 322.374C1527.18 322.366 1525.67 322.578 1523.89 323.011L1507.18 327.074ZM1585.81 370.427L1573.96 373.309L1556.95 303.346L1568.8 300.465L1613.25 341.889L1601.26 292.575L1613.11 289.693L1630.12 359.656L1618.27 362.537L1573.82 321.113L1585.81 370.427ZM1673.65 350.619C1666.78 352.288 1660.45 352.231 1654.67 350.447C1648.91 348.622 1644.01 345.284 1639.99 340.431C1635.96 335.578 1633.07 329.54 1631.31 322.318C1629.56 315.095 1629.35 308.403 1630.7 302.243C1632.05 296.083 1634.87 290.887 1639.16 286.654C1643.47 282.381 1649.06 279.41 1655.93 277.741C1662.83 276.064 1669.16 276.138 1674.92 277.962C1680.7 279.746 1685.61 283.064 1689.64 287.917C1693.66 292.77 1696.56 298.807 1698.31 306.03C1700.07 313.253 1700.27 319.945 1698.92 326.105C1697.57 332.264 1694.74 337.481 1690.43 341.754C1686.14 345.987 1680.54 348.942 1673.65 350.619ZM1671.26 339.519C1675.79 338.417 1679.36 336.451 1681.97 333.622C1684.6 330.753 1686.22 327.219 1686.85 323.019C1687.48 318.819 1687.17 314.16 1685.92 309.042C1684.66 303.86 1682.76 299.571 1680.22 296.175C1677.71 292.738 1674.59 290.374 1670.88 289.08C1667.17 287.787 1662.98 287.707 1658.32 288.841C1653.75 289.951 1650.17 291.953 1647.58 294.847C1644.99 297.708 1643.37 301.238 1642.75 305.438C1642.16 309.63 1642.49 314.302 1643.74 319.452C1644.99 324.602 1646.87 328.878 1649.38 332.282C1651.92 335.678 1655.03 338.027 1658.71 339.328C1662.41 340.589 1666.59 340.653 1671.26 339.519ZM1764.46 326.999L1752.75 329.845L1738.41 270.863L1715.77 276.367L1713.1 265.387L1770.09 251.533L1772.76 262.513L1750.12 268.017L1764.46 326.999ZM1807.55 316.524L1795.84 319.37L1778.83 249.408L1790.54 246.562L1807.55 316.524ZM1878.17 299.356L1863.59 302.9L1832.04 278.925L1827.68 286.828L1833.37 310.246L1822.1 312.986L1805.09 243.024L1816.37 240.284L1823.81 270.892L1844.74 233.386L1859.12 229.89L1837.72 268.642L1878.17 299.356ZM1913.53 290.759L1901.83 293.606L1887.49 234.623L1864.85 240.127L1862.18 229.147L1919.17 215.293L1921.84 226.273L1899.2 231.777L1913.53 290.759ZM1973.89 277.632C1967.02 279.301 1960.69 279.244 1954.91 277.46C1949.15 275.635 1944.25 272.297 1940.23 267.444C1936.2 262.591 1933.31 256.553 1931.55 249.33C1929.8 242.108 1929.59 235.416 1930.94 229.256C1932.29 223.096 1935.11 217.9 1939.4 213.667C1943.71 209.394 1949.3 206.423 1956.17 204.754C1963.07 203.077 1969.4 203.15 1975.16 204.975C1980.94 206.759 1985.85 210.077 1989.88 214.93C1993.9 219.783 1996.8 225.82 1998.55 233.043C2000.31 240.266 2000.51 246.958 1999.16 253.118C1997.81 259.277 1994.98 264.494 1990.67 268.767C1986.38 273 1980.79 275.954 1973.89 277.632ZM1971.5 266.532C1976.03 265.43 1979.6 263.464 1982.21 260.635C1984.84 257.766 1986.46 254.232 1987.09 250.032C1987.72 245.832 1987.41 241.173 1986.16 236.055C1984.9 230.873 1983 226.584 1980.46 223.188C1977.95 219.751 1974.83 217.387 1971.12 216.093C1967.41 214.8 1963.22 214.72 1958.56 215.854C1953.99 216.964 1950.41 218.966 1947.82 221.86C1945.23 224.721 1943.61 228.251 1942.99 232.451C1942.4 236.643 1942.73 241.314 1943.98 246.464C1945.23 251.614 1947.11 255.891 1949.62 259.295C1952.16 262.691 1955.27 265.04 1958.95 266.341C1962.65 267.602 1966.83 267.666 1971.5 266.532Z" fill="#FC55F5"/>
<path d="M2046.41 258.457L2029.4 188.495L2058.31 181.467C2060.45 180.948 2062.34 180.624 2063.99 180.498C2070.11 179.972 2075.15 181.355 2079.1 184.646C2083.08 187.898 2085.81 192.536 2087.27 198.561C2088.22 202.48 2088.42 206.172 2087.85 209.637C2087.32 213.093 2085.96 216.169 2083.77 218.863C2081.61 221.549 2078.64 223.676 2074.87 225.245C2073.35 225.889 2071.52 226.472 2069.38 226.991L2052.18 231.172L2058.12 255.611L2046.41 258.457ZM2066.24 216.178C2068.05 215.737 2069.48 215.217 2070.54 214.617C2073.06 213.284 2074.66 211.402 2075.34 208.973C2076.05 206.536 2076.09 204.022 2075.46 201.431C2074.83 198.84 2073.64 196.625 2071.89 194.786C2070.17 192.907 2067.88 191.955 2065.02 191.928C2063.79 191.92 2062.28 192.133 2060.5 192.566L2043.78 196.629L2049.52 220.241L2066.24 216.178ZM2138.41 237.635C2131.55 239.305 2125.22 239.247 2119.44 237.463C2113.68 235.639 2108.78 232.301 2104.76 227.448C2100.73 222.595 2097.84 216.557 2096.08 209.334C2094.33 202.111 2094.12 195.42 2095.47 189.26C2096.82 183.1 2099.64 177.904 2103.93 173.671C2108.24 169.398 2113.83 166.427 2120.7 164.758C2127.6 163.081 2133.93 163.154 2139.69 164.979C2145.47 166.763 2150.38 170.081 2154.41 174.934C2158.43 179.786 2161.32 185.824 2163.08 193.047C2164.84 200.27 2165.04 206.962 2163.69 213.121C2162.34 219.281 2159.51 224.498 2155.2 228.771C2150.91 233.003 2145.31 235.958 2138.41 237.635ZM2136.03 226.536C2140.56 225.433 2144.13 223.468 2146.74 220.639C2149.37 217.77 2150.99 214.235 2151.62 210.035C2152.24 205.835 2151.94 201.177 2150.69 196.059C2149.43 190.877 2147.53 186.587 2144.99 183.191C2142.47 179.755 2139.36 177.39 2135.65 176.097C2131.94 174.804 2127.75 174.724 2123.09 175.858C2118.52 176.968 2114.94 178.97 2112.35 181.863C2109.76 184.725 2108.14 188.255 2107.52 192.455C2106.92 196.647 2107.25 201.318 2108.51 206.468C2109.76 211.618 2111.64 215.895 2114.15 219.299C2116.69 222.695 2119.8 225.044 2123.48 226.345C2127.18 227.606 2131.36 227.67 2136.03 226.536ZM2234.94 212.627L2221.68 215.851L2201.48 192.666L2186.52 196.304L2192.96 222.831L2181.25 225.678L2164.25 155.715L2193.16 148.688C2195.29 148.168 2197.19 147.845 2198.84 147.718C2204.95 147.192 2209.96 148.478 2213.87 151.575C2217.81 154.633 2220.47 159.012 2221.85 164.712C2222.53 167.498 2222.69 170.341 2222.33 173.241C2222 176.101 2221.1 178.84 2219.65 181.458C2218.18 184.043 2216.14 186.237 2213.53 188.039L2234.94 212.627ZM2178.63 163.849L2183.85 185.324L2200.56 181.261C2200.72 181.221 2201.11 181.127 2201.73 180.977C2202.37 180.82 2202.96 180.642 2203.5 180.443C2204.07 180.236 2204.52 180.005 2204.87 179.749C2207.33 177.986 2208.94 176.068 2209.7 173.995C2210.46 171.89 2210.57 169.753 2210.05 167.582C2209.5 165.315 2208.37 163.359 2206.67 161.715C2204.95 160.039 2202.69 159.183 2199.87 159.149C2198.63 159.14 2197.12 159.353 2195.34 159.786L2178.63 163.849ZM2257.26 207.202L2245.4 210.084L2228.39 140.121L2240.25 137.239L2284.69 178.664L2272.7 129.35L2284.56 126.468L2301.57 196.43L2289.71 199.312L2245.27 157.888L2257.26 207.202ZM2345.09 187.393C2338.22 189.063 2331.9 189.005 2326.11 187.221C2320.35 185.397 2315.46 182.059 2311.43 177.206C2307.41 172.353 2304.51 166.315 2302.76 159.092C2301 151.869 2300.8 145.178 2302.15 139.018C2303.5 132.858 2306.32 127.662 2310.61 123.429C2314.92 119.156 2320.51 116.185 2327.37 114.516C2334.27 112.839 2340.6 112.912 2346.36 114.737C2352.15 116.52 2357.06 119.839 2361.08 124.692C2365.11 129.544 2368 135.582 2369.76 142.805C2371.51 150.028 2371.72 156.72 2370.37 162.879C2369.02 169.039 2366.18 174.256 2361.87 178.529C2357.58 182.761 2351.99 185.716 2345.09 187.393ZM2342.7 176.294C2347.24 175.191 2350.81 173.226 2353.41 170.397C2356.04 167.528 2357.67 163.993 2358.3 159.793C2358.92 155.593 2358.61 150.935 2357.37 145.817C2356.11 140.635 2354.21 136.345 2351.67 132.949C2349.15 129.513 2346.04 127.148 2342.33 125.855C2338.62 124.562 2334.43 124.482 2329.76 125.616C2325.2 126.726 2321.62 128.728 2319.03 131.621C2316.43 134.483 2314.82 138.013 2314.19 142.213C2313.6 146.405 2313.93 151.076 2315.18 156.226C2316.43 161.376 2318.31 165.653 2320.82 169.057C2323.36 172.453 2326.47 174.802 2330.15 176.103C2333.85 177.364 2338.04 177.428 2342.7 176.294ZM2435.9 163.774L2424.19 166.62L2409.86 107.638L2387.22 113.142L2384.55 102.161L2441.54 88.3074L2444.21 99.2876L2421.57 104.791L2435.9 163.774ZM2478.99 153.299L2467.28 156.145L2450.28 86.1828L2461.99 83.3364L2478.99 153.299ZM2549.61 136.131L2535.04 139.674L2503.48 115.7L2499.13 123.603L2504.82 147.021L2493.55 149.761L2476.54 79.7985L2487.81 77.0584L2495.25 107.667L2516.18 70.1609L2530.57 66.6649L2509.16 105.417L2549.61 136.131ZM2584.98 127.534L2573.27 130.38L2558.93 71.3981L2536.29 76.9019L2533.62 65.9217L2590.61 52.0676L2593.28 63.0479L2570.64 68.5517L2584.98 127.534ZM2645.33 114.406C2638.46 116.076 2632.14 116.018 2626.35 114.234C2620.59 112.41 2615.7 109.072 2611.67 104.219C2607.65 99.3661 2604.75 93.3283 2603 86.1053C2601.24 78.8823 2601.04 72.1909 2602.39 66.0311C2603.74 59.8712 2606.56 54.675 2610.85 50.4422C2615.16 46.1693 2620.75 43.1981 2627.62 41.5289C2634.51 39.8517 2640.84 39.9253 2646.6 41.7495C2652.39 43.5334 2657.3 46.8518 2661.32 51.7046C2665.35 56.5574 2668.24 62.5952 2670 69.8182C2671.75 77.0412 2671.96 83.7326 2670.61 89.8924C2669.26 96.0523 2666.42 101.269 2662.11 105.542C2657.82 109.774 2652.23 112.729 2645.33 114.406ZM2642.94 103.307C2647.48 102.204 2651.05 100.239 2653.65 97.41C2656.28 94.5409 2657.91 91.0063 2658.54 86.8063C2659.16 82.6064 2658.85 77.9476 2657.61 72.83C2656.35 67.6476 2654.45 63.3584 2651.91 59.9624C2649.39 56.5262 2646.28 54.1614 2642.57 52.868C2638.86 51.5745 2634.67 51.4947 2630 52.6285C2625.44 53.7388 2621.86 55.7407 2619.27 58.6343C2616.67 61.4956 2615.06 65.0262 2614.43 69.2261C2613.84 73.4182 2614.17 78.0893 2615.42 83.2393C2616.67 88.3893 2618.55 92.6662 2621.06 96.07C2623.6 99.466 2626.71 101.815 2630.39 103.116C2634.09 104.377 2638.28 104.441 2642.94 103.307Z" fill="#FC55F5"/>
</svg>
